<?xml version="1.0" encoding="utf-8"?>
<!-- Generator: Adobe Illustrator 16.0.0, SVG Export Plug-In . SVG Version: 6.00 Build 0)  -->
<!DOCTYPE svg PUBLIC "-//W3C//DTD SVG 1.0//EN" "http://www.w3.org/TR/2001/REC-SVG-20010904/DTD/svg10.dtd">
<svg version="1.0" id="Layer_1" xmlns="http://www.w3.org/2000/svg" xmlns:xlink="http://www.w3.org/1999/xlink" x="0px" y="0px"
	 width="80px" height="21px" viewBox="0 0 80 21" style="enable-background:new 0 0 80 21;" xml:space="preserve">
<g>
	<path style="fill:#DD2222;" d="M76,5.041h4v3.764h-4V14c0,1.332-0.395,3.008,1,3.008c0.559,0,3-0.008,3-0.008v4h-5
		c-2.345,0-4-1.969-4-5V8.805h-3V5.072h3V1h5V5.041z"/>
	<polygon style="fill:#DD2222;" points="20,16 20,3.424 19.705,3.424 24.567,16 27,16 20.821,0 17,0 17,16 	"/>
	<path style="fill:#DD2222;" d="M8.597,8.864C5.545,8.123,2.52,7.868,2.52,5.363c0-2.649,2.124-3.051,4.247-3.051
		C9.365,2.312,10.708,3.097,11,6h3c-0.161-4.471-3.254-6-7.128-6C3.421,0,0,1.436,0,5.562c0,3.73,3.051,4.555,6.075,5.27
		c3.025,0.709,6.052,1.194,6.052,3.985c0,0.423-0.068,0.793-0.166,1.13h2.897C14.938,15.568,15,15.174,15,14.73
		C15,10.745,11.62,9.606,8.597,8.864"/>
	<path style="fill:#DD2222;" d="M47.048,8C47.894,8,49,8.375,49,9.863c0,0.94-0.945,0.995-1.663,1.137
		c-2.617,0.53-7.526,0.581-7.734,4.947h5.326c0.016-0.966,0.622-1.278,1.772-1.561C47.419,14.217,48.363,13.346,49,13v2.045
		c-0.015,0.343,0.094,0.636,0,0.902h4.813V12c0-2.848,0.056-7-6.527-7C44.023,5,40.031,7.031,40,10.007h5
		C45.029,9.38,45.432,8,47.048,8"/>
	<path style="fill:#DD2222;" d="M61,16v-4c0-1,1.113-3,3.184-3C65.246,9,65.467,8.816,66,9V5c-1,0-0.465,0-1,0
		c-1.91,0-3.154,1.363-4,3h-0.057V5H56v11H61z"/>
	<polygon style="fill:#DD2222;" points="34,16 34,3.424 34.295,3.424 29.433,16 27,16 33.179,0 37,0 37,16 	"/>
</g>
</svg>
